<?xml version="1.0" encoding="utf-8"?>
<!-- Generator: Adobe Illustrator 18.1.1, SVG Export Plug-In . SVG Version: 6.00 Build 0)  -->
<svg version="1.1" id="Layer_1" xmlns="http://www.w3.org/2000/svg" xmlns:xlink="http://www.w3.org/1999/xlink" x="0px" y="0px"
	 viewBox="-136.5 65.5 51 51" enable-background="new -136.5 65.5 51 51" xml:space="preserve">
<g>
	<defs>
		<rect id="SVGID_1_" x="-135" y="68.5" width="47.2" height="44.5"/>
	</defs>
	<clipPath id="SVGID_2_">
		<use xlink:href="#SVGID_1_"  overflow="visible"/>
	</clipPath>
	<path clip-path="url(#SVGID_2_)" fill="#9C9EA1" d="M-99.3,97l0-1.8c2.3,0.3,2.3,0.3,7.1-1.5c-1.6-1.8-2-3.9-3-12.1
		s-7.6-8.2-8.1-8.2c-0.5,0-7-0.1-8.1,8.2c-1.1,8.2-1.4,10.3-3,12.1c4.7,1.9,4.7,1.9,7.1,1.5l0,1.8c-1.2,1.4-2.6,2.5-4,3.5
		c0.5,0.3,0.9,0.6,1.4,0.8c3.2,1.9,6.1,3.7,6.1,7.3v2.9c0,0,0,1.1,1.1,1.1h13.6c0.5,0,0.9-0.4,0.9-1v-3.4c0,0,0-1.1,0-2.1
		C-88.3,102.9-95.2,102-99.3,97"/>
	<path clip-path="url(#SVGID_2_)" fill="none" stroke="#FFFFFF" d="M-99.3,97l0-1.8c2.3,0.3,2.3,0.3,7.1-1.5c-1.6-1.8-2-3.9-3-12.1
		s-7.6-8.2-8.1-8.2c-0.5,0-7-0.1-8.1,8.2c-1.1,8.2-1.4,10.3-3,12.1c4.7,1.9,4.7,1.9,7.1,1.5l0,1.8c-1.2,1.4-2.6,2.5-4,3.5
		c0.5,0.3,0.9,0.6,1.4,0.8c3.2,1.9,6.1,3.7,6.1,7.3v2.9c0,0,0,1.1,1.1,1.1h13.6c0.5,0,0.9-0.4,0.9-1v-3.4c0,0,0-1.1,0-2.1
		C-88.3,102.9-95.2,102-99.3,97z"/>
	<path clip-path="url(#SVGID_2_)" fill="#9C9EA1" d="M-112.2,95.3L-112.2,95.3v-1.4c1.2-1.5,2.1-3.3,2.7-5.4
		c0.1-0.3,0.2-0.6,0.2-0.9c0.6-0.4,1.1-1.3,1.3-2.4c0-0.4,0-0.8,0-1.1c-0.1-0.6-0.3-1.1-0.5-1.4c0.1-1.1,0.1-2.2,0-3.5
		c0-0.9-0.1-1.9-0.2-3c0-0.3-0.1-0.5-0.1-0.7c-0.9-5.9-5.8-6.5-7.7-6.5c-0.1,0-1.4,0-1.4,0c-1.9,0-6.8,0.6-7.7,6.5
		c0,0.2-0.1,0.5-0.1,0.7c-0.1,1-0.2,2-0.2,3c0,1.2,0,2.4,0,3.5c-0.3,0.3-0.5,0.8-0.5,1.4c0,0.3-0.1,0.7,0,1.1
		c0.1,1.2,0.6,2.1,1.3,2.4c0.2,0.6,0.3,1.2,0.5,1.8c0.6,1.7,1.4,3.2,2.4,4.5v1.4v0c0,0,0,0-0.6,0.8c-4,4.8-11.6,5.8-11.6,10.3v5
		c0,0.6,0.5,1.1,1,1.1h32.5c0.6,0,1-0.5,1-1.1v-3.9c0,0,0-1.1,0-2.1C-100,101.8-107.6,100.8-112.2,95.3"/>
	<path clip-path="url(#SVGID_2_)" fill="none" stroke="#FFFFFF" d="M-112.2,95.3L-112.2,95.3v-1.4c1.2-1.5,2.1-3.3,2.7-5.4
		c0.1-0.3,0.2-0.6,0.2-0.9c0.6-0.4,1.1-1.3,1.3-2.4c0-0.4,0-0.8,0-1.1c-0.1-0.6-0.3-1.1-0.5-1.4c0.1-1.1,0.1-2.2,0-3.5
		c0-0.9-0.1-1.9-0.2-3c0-0.3-0.1-0.5-0.1-0.7c-0.9-5.9-5.8-6.5-7.7-6.5c-0.1,0-1.4,0-1.4,0c-1.9,0-6.8,0.6-7.7,6.5
		c0,0.2-0.1,0.5-0.1,0.7c-0.1,1-0.2,2-0.2,3c0,1.2,0,2.4,0,3.5c-0.3,0.3-0.5,0.8-0.5,1.4c0,0.3-0.1,0.7,0,1.1
		c0.1,1.2,0.6,2.1,1.3,2.4c0.2,0.6,0.3,1.2,0.5,1.8c0.6,1.7,1.4,3.2,2.4,4.5v1.4v0c0,0,0,0-0.6,0.8c-4,4.8-11.6,5.8-11.6,10.3v5
		c0,0.6,0.5,1.1,1,1.1h32.5c0.6,0,1-0.5,1-1.1v-3.9c0,0,0-1.1,0-2.1C-100,101.8-107.6,100.8-112.2,95.3z"/>
</g>
</svg>
