<?xml version="1.0" encoding="utf-8"?>
<!-- Generator: Adobe Illustrator 18.1.1, SVG Export Plug-In . SVG Version: 6.00 Build 0)  -->
<svg version="1.1" id="Layer_1" xmlns="http://www.w3.org/2000/svg" xmlns:xlink="http://www.w3.org/1999/xlink" x="0px" y="0px"
	 viewBox="-25.5 -25.5 64 64" enable-background="new -25.5 -25.5 64 64" xml:space="preserve">
<g>
	<g>
		<defs>
			<rect id="SVGID_1_" x="-24.6" y="-25.4" width="63" height="63"/>
		</defs>
		<clipPath id="SVGID_2_">
			<use xlink:href="#SVGID_1_"  overflow="visible"/>
		</clipPath>
		<path clip-path="url(#SVGID_2_)" fill="#CD4449" d="M6.9,37.6c17.4,0,31.5-14.1,31.5-31.5S24.3-25.4,6.9-25.4S-24.6-11.3-24.6,6.1
			S-10.5,37.6,6.9,37.6"/>
	</g>
	<g>
		<defs>
			<rect id="SVGID_3_" x="-24.6" y="-25.4" width="63" height="63"/>
		</defs>
		<clipPath id="SVGID_4_">
			<use xlink:href="#SVGID_3_"  overflow="visible"/>
		</clipPath>
		<path clip-path="url(#SVGID_4_)" fill="#FFFFFF" d="M5.9,16.3L5.9,16.3c-0.8,0.7-2.1,0.7-2.9,0L-6.9,7c-0.8-0.7-0.8-2,0-2.7
			s2.1-0.7,2.9,0l8.6,8.1l0,0c0,0,0,0,4.6-4.3L22.1-4.1c0.7-0.7,2-0.7,2.8,0c0.7,0.7,0.7,1.9,0,2.6L5.9,16.3c-0.8,0.7-2.1,0.7-2.8,0
			"/>
	</g>
</g>
</svg>
