<?xml version="1.0" encoding="utf-8"?>
<!-- Generator: Adobe Illustrator 18.1.1, SVG Export Plug-In . SVG Version: 6.00 Build 0)  -->
<svg version="1.1" id="Layer_1" xmlns="http://www.w3.org/2000/svg" xmlns:xlink="http://www.w3.org/1999/xlink" x="0px" y="0px"
	 viewBox="0 0 31 31" enable-background="new 0 0 31 31" xml:space="preserve">
<g>
	<defs>
		<rect id="SVGID_1_" x="0.5" y="0.5" width="30" height="30"/>
	</defs>
	<clipPath id="SVGID_2_">
		<use xlink:href="#SVGID_1_"  overflow="visible"/>
	</clipPath>
	<path clip-path="url(#SVGID_2_)" fill="#5DC092" d="M15.5,30.5c8.3,0,15-6.7,15-15s-6.7-15-15-15s-15,6.7-15,15S7.2,30.5,15.5,30.5
		"/>
	<path clip-path="url(#SVGID_2_)" fill="#FFFFFF" d="M15,20.4L15,20.4c-0.4,0.4-1,0.4-1.4,0l-4.7-4.5c-0.4-0.4-0.4-0.9,0-1.3
		c0.4-0.4,1-0.4,1.4,0l4.1,3.8v0c0,0,0,0,2.2-2.1l6.2-5.8c0.4-0.3,1-0.3,1.3,0c0.4,0.3,0.4,0.9,0,1.2L15,20.4c-0.4,0.4-1,0.4-1.3,0"
		/>
</g>
</svg>
