<?xml version="1.0" encoding="utf-8"?>
<!-- Generator: Adobe Illustrator 18.1.1, SVG Export Plug-In . SVG Version: 6.00 Build 0)  -->
<svg version="1.1" id="Layer_1" xmlns="http://www.w3.org/2000/svg" xmlns:xlink="http://www.w3.org/1999/xlink" x="0px" y="0px"
	 viewBox="0 0 32.2 32.2" enable-background="new 0 0 32.2 32.2" xml:space="preserve">
<g>
	<defs>
		<rect id="SVGID_1_" x="0.5" y="0.8" width="31.2" height="31.2"/>
	</defs>
	<clipPath id="SVGID_2_">
		<use xlink:href="#SVGID_1_"  overflow="visible"/>
	</clipPath>
	<circle clip-path="url(#SVGID_2_)" fill="none" stroke="#A4D8C1" stroke-width="1.2" cx="16.1" cy="16.4" r="15"/>
	<path clip-path="url(#SVGID_2_)" fill="#A4D8C1" d="M14.7,21.3L14.7,21.3c-0.4,0.4-1,0.4-1.4,0l-4.7-4.5c-0.4-0.4-0.4-0.9,0-1.3
		c0.4-0.4,1-0.4,1.4,0l4.1,3.8v0c0,0,0,0,2.2-2.1l6.2-5.8c0.4-0.3,1-0.3,1.3,0c0.4,0.3,0.4,0.9,0,1.2L14.7,21.3
		c-0.4,0.4-1,0.4-1.3,0"/>
</g>
</svg>
