<?xml version="1.0" encoding="utf-8"?>
<!-- Generator: Adobe Illustrator 18.1.1, SVG Export Plug-In . SVG Version: 6.00 Build 0)  -->
<svg version="1.1" id="Layer_1" xmlns="http://www.w3.org/2000/svg" xmlns:xlink="http://www.w3.org/1999/xlink" x="0px" y="0px"
	 viewBox="-139.8 62.2 57.5 57.5" enable-background="new -139.8 62.2 57.5 57.5" xml:space="preserve">
<g>
	<defs>
		<rect id="SVGID_1_" x="-122.8" y="80.1" width="24.1" height="23.2"/>
	</defs>
	<clipPath id="SVGID_2_">
		<use xlink:href="#SVGID_1_"  overflow="visible"/>
	</clipPath>
	<path clip-path="url(#SVGID_2_)" fill="#818286" d="M-99.6,103.2c-0.2,0-0.4-0.1-0.6-0.2l-7.8-7c-0.4-0.3-0.4-0.9-0.1-1.3
		c0.3-0.4,0.9-0.4,1.3-0.1l7.8,7c0.4,0.3,0.4,0.9,0.1,1.3C-99.1,103.1-99.3,103.2-99.6,103.2"/>
	<path clip-path="url(#SVGID_2_)" fill="#818286" d="M-113.6,81.4c-4.3,0-7.8,3.5-7.8,7.8s3.5,7.8,7.8,7.8c4.3,0,7.8-3.5,7.8-7.8
		S-109.3,81.4-113.6,81.4 M-113.6,98.4c-5,0-9.2-4.1-9.2-9.2c0-5.1,4.1-9.2,9.2-9.2c5.1,0,9.2,4.1,9.2,9.2
		C-104.4,94.3-108.5,98.4-113.6,98.4"/>
</g>
</svg>
