<?xml version="1.0" encoding="utf-8"?>
<!-- Generator: Adobe Illustrator 18.1.1, SVG Export Plug-In . SVG Version: 6.00 Build 0)  -->
<svg version="1.1" id="Layer_1" xmlns="http://www.w3.org/2000/svg" xmlns:xlink="http://www.w3.org/1999/xlink" x="0px" y="0px"
	 viewBox="-156.4 45.6 90.8 90.8" enable-background="new -156.4 45.6 90.8 90.8" xml:space="preserve">
<g>
	<defs>
		<rect id="SVGID_1_" x="-153.4" y="49.9" width="85.8" height="85.8"/>
	</defs>
	<clipPath id="SVGID_2_">
		<use xlink:href="#SVGID_1_"  overflow="visible"/>
	</clipPath>
	<path clip-path="url(#SVGID_2_)" fill="#4D9DE0" d="M-110.5,135.6c23.7,0,42.9-19.2,42.9-42.9s-19.2-42.9-42.9-42.9
		s-42.9,19.2-42.9,42.9S-134.2,135.6-110.5,135.6"/>
	<path clip-path="url(#SVGID_2_)" fill="#FFFFFF" d="M-111.8,106.7L-111.8,106.7c-1.1,1-2.8,1-3.9,0l-13.5-12.7
		c-1.1-1-1.1-2.7,0-3.7c1.1-1,2.8-1,3.9,0l11.7,11l0,0c0,0,0,0,6.2-5.9l17.6-16.6c1-1,2.7-1,3.8,0c1,1,1,2.6,0,3.6L-111.8,106.7
		c-1.1,1-2.8,1-3.8,0"/>
</g>
</svg>
