<?xml version="1.0" encoding="utf-8"?>
<!-- Generator: Adobe Illustrator 18.1.1, SVG Export Plug-In . SVG Version: 6.00 Build 0)  -->
<svg version="1.1" id="Layer_1" xmlns="http://www.w3.org/2000/svg" xmlns:xlink="http://www.w3.org/1999/xlink" x="0px" y="0px"
	 viewBox="-139.8 62.2 57.5 57.5" enable-background="new -139.8 62.2 57.5 57.5" xml:space="preserve">
<g>
	<defs>
		<rect id="SVGID_1_" x="-137.8" y="73.8" width="54.5" height="35.5"/>
	</defs>
	<clipPath id="SVGID_2_">
		<use xlink:href="#SVGID_1_"  overflow="visible"/>
	</clipPath>
	<path clip-path="url(#SVGID_2_)" fill="#4FA3D6" d="M-84.3,74.7l-25.5,20c0,0-0.7,0.6-1.5,0l-24.8-19.4c0,0-0.7-0.6,0.2-0.6h50.8
		c0,0,0.9,0,0.9,0.9v31.8c0,0,0,0.9-0.9,0.9h-50.8c0,0-0.9,0-0.9-0.9V74.7"/>
	<path clip-path="url(#SVGID_2_)" fill="none" stroke="#EFEDED" stroke-width="1.8" d="M-84.3,74.7l-25.5,20c0,0-0.7,0.6-1.5,0
		l-24.8-19.4c0,0-0.7-0.6,0.2-0.6h50.8c0,0,0.9,0,0.9,0.9v31.8c0,0,0,0.9-0.9,0.9h-50.8c0,0-0.9,0-0.9-0.9V74.7"/>
</g>
</svg>
